<?xml version="1.0" standalone="no"?>
<!DOCTYPE svg PUBLIC "-//W3C//DTD SVG 20010904//EN"
 "http://www.w3.org/TR/2001/REC-SVG-20010904/DTD/svg10.dtd">
<svg version="1.0" xmlns="http://www.w3.org/2000/svg"
 width="225.000000pt" height="225.000000pt" viewBox="0 0 225.000000 225.000000"
 preserveAspectRatio="xMidYMid meet">

<g transform="translate(0.000000,225.000000) scale(0.100000,-0.100000)"
fill="#000000" stroke="none">
<path d="M479 1827 c-54 -28 -122 -122 -186 -256 l-45 -93 -65 7 c-81 9 -83
-10 -5 -40 29 -11 52 -26 52 -34 0 -13 -24 -12 -128 6 -73 12 -3 -45 75 -62
l33 -7 -8 -76 c-4 -42 -7 -142 -7 -222 0 -144 0 -146 33 -212 34 -70 80 -118
113 -118 25 0 59 35 59 61 0 12 -13 38 -29 58 -47 61 -54 82 -59 186 -4 90 10
251 24 290 9 23 56 18 109 -12 26 -14 73 -32 104 -39 31 -7 57 -17 59 -22 2
-6 18 -34 36 -65 30 -50 32 -59 25 -103 -4 -27 -8 -159 -8 -293 l-1 -244 -36
-31 c-27 -23 -36 -40 -37 -66 -2 -32 0 -35 33 -40 55 -9 227 3 242 18 8 8 16
72 23 194 6 103 14 183 20 185 6 1 24 -55 41 -127 l31 -129 -25 -25 c-19 -18
-25 -36 -26 -68 -1 -39 1 -43 24 -46 42 -5 220 44 236 65 17 21 14 62 -21 240
-16 82 -22 140 -18 176 l6 54 176 7 c97 4 193 8 215 9 l38 2 28 -79 c22 -62
39 -89 79 -130 l51 -52 0 -77 c0 -76 -1 -79 -34 -111 -36 -33 -55 -81 -40 -96
14 -14 236 -15 261 -1 12 6 24 20 28 31 4 11 21 23 42 29 48 13 73 38 73 72 0
16 -14 101 -31 188 l-31 160 27 103 c31 116 43 277 27 348 -13 56 -9 61 12 16
9 -19 28 -121 42 -226 22 -159 24 -196 14 -215 -10 -19 -10 -30 0 -54 14 -36
25 -39 40 -12 14 27 13 51 -4 70 -8 10 -20 73 -30 161 -31 266 -44 302 -156
430 -58 65 -84 86 -147 117 -86 43 -42 39 -463 34 -105 -2 -250 3 -336 11
-149 15 -151 15 -199 51 -26 21 -53 37 -60 37 -6 0 -22 12 -36 26 -62 67 -176
85 -260 41z m186 -7 c13 -5 0 -9 -41 -14 -80 -9 -145 -34 -190 -74 -50 -44
-54 -33 -10 22 35 41 74 67 121 79 22 6 89 -2 120 -13z m59 -39 c3 -5 -29 -11
-72 -13 -85 -5 -150 -29 -212 -78 -37 -29 -80 -40 -80 -20 0 6 11 10 24 10 13
0 29 7 36 16 19 22 94 64 143 79 48 16 153 19 161 6z m-2 -27 c4 -3 -3 -27
-14 -52 -27 -59 -49 -142 -38 -142 4 0 11 16 15 36 7 40 50 144 59 144 4 0 6
-18 6 -40 0 -26 -4 -40 -13 -40 -10 0 -14 -19 -15 -70 -1 -56 2 -71 16 -79 10
-6 23 -6 34 0 15 8 17 21 14 76 -2 38 -8 69 -15 71 -13 4 -15 92 -3 92 15 0
88 -56 110 -84 11 -15 30 -47 42 -71 19 -38 20 -50 10 -79 -13 -40 -67 -92
-119 -114 -20 -8 -67 -16 -104 -17 -37 -2 -71 -6 -75 -10 -4 -4 29 -5 73 -3
93 5 160 33 206 86 32 36 40 22 15 -27 -34 -64 -129 -110 -230 -112 -52 -1
-57 -2 -31 -10 18 -5 51 -5 83 1 177 32 253 158 180 299 -16 29 -28 55 -28 57
0 7 74 3 90 -4 13 -6 16 -35 17 -172 1 -91 2 -171 2 -178 1 -10 88 -12 419
-10 l417 3 2 130 c1 72 2 138 3 148 0 30 21 19 89 -51 93 -95 116 -158 115
-307 0 -81 -6 -132 -23 -195 -19 -71 -60 -304 -61 -347 0 -10 -28 -13 -105
-13 l-105 0 0 125 c0 129 2 135 42 114 11 -6 22 -8 25 -6 2 3 -23 20 -57 38
-75 40 -149 118 -181 193 -13 31 -27 56 -32 56 -9 0 16 -61 43 -108 15 -24 16
-34 7 -37 -64 -21 -451 -33 -572 -17 -42 6 -50 10 -47 27 9 76 17 195 11 195
-3 0 -9 -37 -12 -83 -8 -94 -36 -208 -78 -317 -16 -41 -29 -92 -29 -112 0 -67
-2 -68 -107 -68 l-95 0 4 233 c3 211 6 237 26 287 24 60 27 74 13 66 -5 -4
-15 -28 -22 -56 -14 -56 -26 -54 -60 12 l-19 38 30 0 c19 0 29 4 25 10 -4 6
-14 8 -24 5 -24 -7 -114 11 -169 35 l-46 21 35 17 c18 9 35 24 37 33 5 25 -27
52 -52 44 -47 -13 -143 -24 -176 -19 -42 7 -42 7 -34 28 4 11 20 17 53 18 l46
1 -42 4 c-44 4 -50 11 -33 43 7 14 19 17 50 15 22 -2 40 1 40 6 0 5 -16 9 -35
9 -35 0 -40 5 -29 34 4 11 20 16 48 17 40 2 40 2 8 8 -34 6 -36 11 -19 49 8
17 19 22 46 22 26 0 48 10 79 35 38 30 93 54 157 68 31 7 101 8 107 1z m336
-127 c3 -22 -1 -27 -17 -27 -17 0 -21 6 -21 31 0 24 4 30 18 27 10 -2 18 -14
20 -31z m606 17 c10 -25 7 -46 -5 -39 -6 4 -8 13 -5 20 2 7 -2 12 -11 11 -9 0
-18 5 -20 12 -7 18 34 15 41 -4z m117 -18 c2 -63 1 -247 -3 -251 -2 -2 -161
-5 -353 -5 l-350 -2 -3 141 -3 141 45 0 45 0 3 -92 3 -93 260 0 260 0 3 85 c1
47 4 90 7 97 5 15 85 -4 86 -21z m-561 16 c0 -4 17 -6 39 -4 46 5 60 -11 35
-39 -23 -26 -34 -24 -60 9 -22 27 -23 27 -38 7 -15 -20 -15 -20 -16 2 0 19 11
30 33 32 4 1 7 -2 7 -7z m290 -8 c11 -13 10 -19 -8 -36 -21 -21 -22 -21 -42
-3 -26 23 -25 34 3 45 31 12 33 12 47 -6z m110 0 c10 -12 9 -18 -5 -34 -10
-11 -23 -20 -30 -20 -10 0 -65 54 -65 64 0 12 90 3 100 -10z m-220 -28 l-30
-31 -21 22 c-30 29 -16 44 37 42 l45 -3 -31 -30z m430 3 c0 -5 -7 -9 -15 -9
-8 0 -15 7 -15 15 0 9 6 12 15 9 8 -4 15 -10 15 -15z m-1058 -44 c3 -34 0 -40
-17 -40 -17 0 -20 5 -16 40 1 22 5 44 8 48 9 16 21 -7 25 -48z m468 18 l20
-26 30 28 30 28 49 -48 c47 -46 49 -50 34 -67 -20 -22 -46 -23 -63 -3 -10 13
-9 19 6 36 19 21 18 21 -8 8 -22 -10 -31 -9 -45 2 -17 13 -17 13 0 -7 9 -11
14 -24 10 -27 -3 -4 1 -7 10 -7 9 0 18 -4 21 -9 9 -13 -88 -10 -96 3 -5 8 -8
7 -8 -1 0 -7 -10 -13 -22 -13 -20 1 -21 2 -8 13 8 7 24 24 35 37 11 14 13 19
5 13 -8 -7 -22 -13 -32 -13 -11 0 -15 -5 -12 -15 4 -8 2 -15 -4 -15 -13 0 -13
81 0 97 15 19 24 16 48 -14z m229 -10 c7 -5 -31 -43 -42 -43 -6 0 -19 8 -29
17 -18 16 -18 17 4 40 21 22 22 22 42 6 12 -10 23 -19 25 -20z m83 20 c23 -20
23 -36 0 -56 -17 -16 -20 -15 -42 8 -23 25 -23 25 -4 44 24 25 24 25 46 4z
m107 4 c6 -7 9 -36 8 -63 l-2 -49 -45 -1 c-25 -1 -51 3 -57 9 -9 6 -13 6 -13
-2 0 -6 -7 -11 -15 -11 -22 0 -19 7 18 47 l34 35 27 -33 c22 -26 29 -30 37
-18 6 10 3 15 -13 19 -35 9 -45 35 -24 59 22 24 30 26 45 8z m-603 -33 c-3 -9
-6 -22 -6 -30 0 -8 -7 -14 -15 -14 -10 0 -15 10 -15 30 0 24 4 30 21 30 15 0
19 -4 15 -16z m776 -1 c7 -25 -1 -43 -18 -43 -9 0 -14 11 -14 30 0 33 24 42
32 13z m-329 -29 c15 -20 16 -28 7 -39 -16 -19 -44 -19 -60 0 -10 12 -9 20 4
40 20 31 26 31 49 -1z m-449 -59 c0 -20 -6 -31 -17 -33 -13 -3 -17 4 -17 33 0
29 4 36 17 33 11 -2 17 -13 17 -33z m777 20 c1 -8 2 -23 3 -32 0 -10 -7 -19
-16 -21 -15 -3 -18 4 -18 32 0 25 4 36 15 36 8 0 16 -7 16 -15z m-391 -5 c0
-5 -9 -10 -21 -10 -11 0 -17 5 -14 10 3 6 13 10 21 10 8 0 14 -4 14 -10z
m-1201 -36 c13 -13 -11 -12 -45 1 l-39 15 40 -6 c22 -3 42 -8 44 -10z m817
-49 c4 -26 -11 -50 -25 -41 -6 4 -11 21 -11 37 0 23 4 30 17 27 9 -2 17 -12
19 -23z m778 -1 c8 -29 -5 -50 -23 -40 -6 4 -11 20 -11 37 0 37 25 39 34 3z
m-1534 -19 c52 0 114 4 137 8 36 7 44 6 49 -8 10 -26 -8 -36 -82 -42 -74 -6
-203 14 -264 40 l-35 16 50 -7 c28 -4 93 -7 145 -7z m1523 -44 c4 -1 7 -5 7
-11 0 -12 -796 -14 -804 -1 -4 5 -1 11 5 13 10 3 769 2 792 -1z m-1504 -16 c2
-3 -1 -36 -8 -74 -15 -94 -14 -296 3 -343 7 -20 28 -55 46 -78 28 -36 31 -44
22 -66 -17 -36 -63 -33 -97 7 -38 46 -65 103 -72 154 -5 42 -4 45 18 46 24 2
24 2 2 6 -16 3 -23 11 -23 29 0 18 6 24 23 25 l22 2 -22 4 c-31 6 -33 53 -3
53 11 0 20 5 20 10 0 6 -10 10 -22 10 -21 0 -21 2 -15 105 3 58 9 110 13 116
6 10 81 5 93 -6z m1331 -310 c7 -9 11 -17 9 -20 -2 -2 -56 -12 -119 -22 -175
-27 -557 -19 -567 12 -1 6 1 16 5 22 6 10 29 10 102 2 99 -12 383 -5 455 10
63 14 102 12 115 -4z m67 -57 l33 -23 0 -107 c0 -60 -4 -108 -8 -108 -4 0 -28
21 -54 48 -33 34 -51 65 -67 111 -26 81 -26 89 2 94 46 9 62 6 94 -15z m-621
-14 l45 -6 -6 -52 c-4 -29 -2 -78 4 -111 8 -41 8 -61 0 -65 -15 -10 -170 -42
-175 -37 -3 3 -14 39 -25 80 l-21 76 22 66 22 67 44 -6 c24 -3 65 -9 90 -12z
m1066 -46 c6 -16 -1 -38 -12 -38 -11 0 -21 30 -14 41 8 13 21 11 26 -3z m-126
-228 c29 -154 26 -173 -32 -189 -21 -6 -40 -9 -42 -7 -4 4 25 273 34 315 3 13
7 21 10 19 2 -3 16 -65 30 -138z m-886 10 c0 -10 -6 -12 -95 -30 -27 -6 -58
-13 -69 -16 -12 -4 -17 -2 -14 7 2 7 33 21 69 30 75 20 109 23 109 9z m-287
-29 c4 -1 7 -5 7 -11 0 -6 -38 -10 -95 -10 -52 0 -95 4 -95 9 0 5 4 11 10 13
9 3 151 2 173 -1z m305 -38 c25 -115 25 -120 5 -140 -10 -10 -49 -24 -86 -32
-61 -12 -70 -12 -86 3 -10 9 -27 16 -39 16 -31 0 -27 24 9 54 22 19 28 30 21
39 -6 6 -12 23 -14 37 -3 24 2 26 82 46 47 12 88 22 92 23 3 1 11 -20 16 -46z
m790 28 c3 -8 -26 -11 -97 -11 -88 0 -112 5 -97 21 10 10 190 1 194 -10z
m-1089 -63 c-1 -75 -15 -149 -30 -159 -8 -5 -49 -9 -91 -9 -68 0 -77 2 -83 20
-3 11 -17 23 -31 26 -13 3 -24 10 -24 14 0 11 50 50 64 50 7 0 10 18 8 50 l-4
50 96 0 96 0 -1 -42z m1086 -10 c-3 -29 -7 -67 -9 -83 -7 -67 -18 -75 -111
-75 -75 0 -84 2 -90 20 -3 11 -17 23 -31 26 -13 3 -24 9 -24 14 0 11 33 37 58
45 17 5 20 10 13 19 -6 7 -8 29 -4 49 l6 37 99 0 99 0 -6 -52z m-1311 -134
c22 -21 20 -24 -14 -24 -23 0 -30 4 -30 20 0 24 22 26 44 4z m345 3 c14 -17 4
-27 -26 -27 -16 0 -23 6 -23 20 0 23 31 27 49 7z m735 -3 c22 -21 20 -24 -14
-24 -23 0 -30 4 -30 20 0 24 22 26 44 4z"/>
<path d="M486 1581 c-4 -5 -2 -12 3 -15 5 -4 12 -2 15 3 4 5 2 12 -3 15 -5 4
-12 2 -15 -3z"/>
</g>
</svg>
